<svg xmlns="http://www.w3.org/2000/svg" viewBox="0 0 436.78 820"><g id="Layer_2" data-name="Layer 2"><path d="M61.09,311.16V439.23s-.35,100,62.34,100c69.36,0,66.15-87.45,66.15-87.45V311.16h57.47V452.5s0,150.26-121.71,150.26C0,602.76,0,445.36,0,445.36V311.16Z"/><path d="M380.71,193.7l.27-29.44S379.43,63.63,316.73,63.63C247.37,63.63,247.2,151,247.2,151l1,82.63h113l.27,58H189.73V150.25S191.55,0,313.26,0C438.6,0,436.78,157.39,436.78,157.39V193.7Z"/><path d="M313.17,460.05c69.36,0,66.15-87.44,66.15-87.44V232h57.46V373.32s0,150.26-121.71,150.26c-43.09,0-56.93-20-56.93-20s2.43-7.82,5-28.83a259.22,259.22,0,0,0,1.59-35.24S288.43,460.05,313.17,460.05Z"/><path d="M250.83,627.09v29.38s-.36,100,62.34,100c69.36,0,66.15-87.45,66.15-87.45V504.74l57.46-260.27V669.74S436.78,820,315.07,820c-125.34,0-125.33-157.4-125.33-157.4V627.09Z"/></g></svg>