<?xml version="1.0" encoding="UTF-8"?><svg xmlns="http://www.w3.org/2000/svg" viewBox="0 0 1374.81 866.96"><defs><style>.c,.d{fill:#fff;}.d{font-family:Gadugi, Gadugi;font-size:300px;}</style></defs><g id="a"/><g id="b"><path class="c" d="M61.09,311.16v128.07s-.36,100,62.34,100c69.36,0,66.15-87.44,66.15-87.44v-140.62h57.46v141.34s0,150.26-121.71,150.26S0,445.36,0,445.36v-134.2H61.09Z"/><path class="c" d="M380.71,193.7l.27-29.45s-1.55-100.63-64.25-100.63c-69.36,0-69.53,87.33-69.53,87.33l1.01,82.63h112.96l.27,58H189.73V150.25S191.55,0,313.26,0s123.52,157.39,123.52,157.39v36.32h-56.07Z"/><path class="c" d="M313.17,460.05c69.36,0,66.15-87.44,66.15-87.44V231.98h57.46v141.34s0,150.26-121.71,150.26c-43.09,0-56.94-20.02-56.94-20.02,0,0,2.43-7.82,4.97-28.83,2.18-18.04,1.59-35.23,1.59-35.23,0,0,23.73,20.56,48.47,20.56Z"/><path class="c" d="M250.83,627.09v29.39s-.36,100,62.34,100c69.36,0,66.15-87.44,66.15-87.44v-164.28l57.46-260.27v425.27s0,150.26-121.71,150.26-125.34-157.4-125.34-157.4v-35.51h61.09Z"/><text class="d" transform="translate(483.43 258.97)"><tspan x="0" y="0">Up</tspan></text><text class="d" transform="translate(483.43 527.4)"><tspan x="0" y="0">For</tspan></text><text class="d" transform="translate(473.81 790.48)"><tspan x="0" y="0">Grabs</tspan></text></g></svg>